<?xml version="1.0" encoding="utf-8"?>
<!-- Generator: Adobe Illustrator 27.7.0, SVG Export Plug-In . SVG Version: 6.00 Build 0)  -->
<svg version="1.1" id="Layer_1" xmlns="http://www.w3.org/2000/svg" xmlns:xlink="http://www.w3.org/1999/xlink" x="0px" y="0px"
	 viewBox="0 0 520 284.9" style="enable-background:new 0 0 520 284.9;" xml:space="preserve">
<style type="text/css">
	.st0{fill:#80F5FF;}
	.st1{opacity:0.55;fill:url(#SVGID_1_);enable-background:new    ;}
</style>
<g>
	<rect x="66.8" y="14.9" class="st0" width="164.4" height="1.2"/>
	<rect x="55.8" y="253.1" class="st0" width="175.5" height="1.2"/>
	<rect x="12" y="83.5" class="st0" width="1.2" height="93.7"/>
	<rect x="506.6" y="79.9" class="st0" width="1.2" height="82.7"/>
	<rect x="287.9" y="253.1" class="st0" width="141.4" height="1.2"/>
	<rect x="287.9" y="14.9" class="st0" width="155" height="1.2"/>
	<path class="st0" d="M269.5,15.6c0-5.1-4.1-9.2-9.2-9.2s-9.2,4.1-9.2,9.2s4.1,9.2,9.2,9.2S269.5,20.7,269.5,15.6z"/>
	<path class="st0" d="M39.8,35.6c0-4.9-3.9-8.8-8.8-8.8s-8.8,4-8.8,8.8s3.9,8.8,8.8,8.8S39.8,40.4,39.8,35.6z"/>
	<path class="st0" d="M484.7,231.7c0-2.3-1.9-4.2-4.2-4.2s-4.2,1.9-4.2,4.2c0,2.3,1.9,4.2,4.2,4.2S484.7,234,484.7,231.7z"/>
	<path class="st0" d="M29.4,245.2c0-2.3-1.9-4.2-4.2-4.2s-4.2,1.9-4.2,4.2c0,2.3,1.9,4.2,4.2,4.2S29.4,247.5,29.4,245.2z"/>
	<path class="st0" d="M500.6,33.4c0-5.4-4.3-9.7-9.7-9.7s-9.7,4.3-9.7,9.7s4.3,9.7,9.7,9.7S500.6,38.8,500.6,33.4z"/>
	<path class="st0" d="M264.6,253.4c0-2.3-1.9-4.2-4.2-4.2s-4.2,1.9-4.2,4.2s1.9,4.2,4.2,4.2S264.6,255.7,264.6,253.4z"/>
	
		<linearGradient id="SVGID_1_" gradientUnits="userSpaceOnUse" x1="26.0367" y1="223.0305" x2="490.8286" y2="223.0305" gradientTransform="matrix(1 0 0 -1 0 361.8898)">
		<stop  offset="0" style="stop-color:#407B80"/>
		<stop  offset="0.14" style="stop-color:#3C7479"/>
		<stop  offset="0.34" style="stop-color:#336367"/>
		<stop  offset="0.57" style="stop-color:#244649"/>
		<stop  offset="0.83" style="stop-color:#0F1E1F"/>
		<stop  offset="1" style="stop-color:#000000"/>
	</linearGradient>
	<polygon class="st1" points="490.8,75.2 490.8,199.4 478.7,199.4 445.5,245.2 39.6,245.2 26,226.5 26,77.8 48.6,46.6 66.8,46.6 
		66.8,32.5 459.9,32.5 	"/>
	<polygon class="st0" points="446.3,245.2 445.5,244 478.6,197.6 490.7,197.6 490.7,199.3 479.1,199.3 	"/>
	<polygon class="st0" points="490,75.2 459.4,33.2 460.3,32.1 490.8,74 	"/>
	<polygon class="st0" points="26.9,77.8 26,76.6 48.9,46.6 67.1,46.6 67.1,48.2 49.4,48.2 	"/>
	<polygon class="st0" points="109.7,260.6 114.9,265.7 167.4,265.7 171.7,270 208.6,270 220.1,258.5 107.6,258.5 	"/>
	<polygon class="st0" points="410.6,260.6 405.5,265.7 353,265.7 348.7,270 311.8,270 300.3,258.5 412.8,258.5 	"/>
</g>
</svg>
