<?xml version="1.0" encoding="UTF-8"?>
<svg xmlns="http://www.w3.org/2000/svg" xmlns:xlink="http://www.w3.org/1999/xlink" viewBox="0 0 639.06 361.21">
  <defs>
    <style>
      .cls-1 {
        fill: #80f5ff;
      }

      .cls-2 {
        fill: url(#_Áåçûìÿííûé_ãðàäèåíò_10);
        mix-blend-mode: screen;
        opacity: .55;
      }

      .cls-3 {
        fill: none;
        isolation: isolate;
      }
    </style>
    <linearGradient id="_Áåçûìÿííûé_ãðàäèåíò_10" data-name="Áåçûìÿííûé ãðàäèåíò 10" x1="76.47" y1="160.54" x2="567.68" y2="160.54" gradientUnits="userSpaceOnUse">
      <stop offset="0" stop-color="#407b80"/>
      <stop offset=".14" stop-color="#3c7479"/>
      <stop offset=".34" stop-color="#336367"/>
      <stop offset=".57" stop-color="#244649"/>
      <stop offset=".83" stop-color="#0f1e1f"/>
      <stop offset="1" stop-color="#000"/>
    </linearGradient>
  </defs>
  <g class="cls-3">
    <g id="Layer_1" data-name="Layer 1">
      <g>
        <rect class="cls-1" x="119.56" y="61.26" width="173.76" height="1.29"/>
        <rect class="cls-1" x="107.9" y="257.69" width="185.43" height="1.29"/>
        <rect class="cls-1" x="60.68" y="129.11" width="1.3" height="83.01"/>
        <rect class="cls-1" x="584.3" y="129.29" width="1.3" height="77.29"/>
        <rect class="cls-1" x="353.27" y="257.69" width="149.39" height="1.29"/>
        <rect class="cls-1" x="353.27" y="61.26" width="163.76" height="1.29"/>
        <path class="cls-1" d="m333.8,62c0-5.32-4.35-9.63-9.71-9.63s-9.71,4.31-9.71,9.63,4.35,9.64,9.71,9.64,9.71-4.31,9.71-9.64Z"/>
        <path class="cls-1" d="m91.03,82.9c0-5.1-4.17-9.24-9.31-9.24s-9.31,4.14-9.31,9.24,4.17,9.24,9.31,9.24,9.31-4.14,9.31-9.24Z"/>
        <path class="cls-1" d="m561.2,235.29c0-2.45-2-4.43-4.47-4.43s-4.47,1.99-4.47,4.43,2,4.43,4.47,4.43,4.47-1.98,4.47-4.43Z"/>
        <path class="cls-1" d="m80.03,249.44c0-2.45-2-4.43-4.47-4.43s-4.47,1.99-4.47,4.43,2,4.43,4.47,4.43,4.47-1.99,4.47-4.43Z"/>
        <path class="cls-1" d="m577.99,80.65c0-5.61-4.59-10.16-10.25-10.16s-10.24,4.55-10.24,10.16,4.59,10.16,10.24,10.16,10.25-4.55,10.25-10.16Z"/>
        <path class="cls-1" d="m328.56,257.99c0-2.45-2-4.43-4.47-4.43s-4.47,1.99-4.47,4.43,2,4.43,4.47,4.43,4.47-1.98,4.47-4.43Z"/>
        <polygon class="cls-2" points="567.68 112.16 567.68 206.58 554.82 206.58 519.73 241.4 90.83 241.4 76.47 227.14 76.47 114.09 100.34 90.4 119.56 90.4 119.56 79.68 534.96 79.68 567.68 112.16"/>
        <polygon class="cls-1" points="519.89 242.47 518.97 241.56 554.56 206.25 567.57 206.25 567.57 207.54 555.09 207.54 519.89 242.47"/>
        <polygon class="cls-1" points="567.22 112.61 534.5 80.14 535.41 79.23 568.14 111.7 567.22 112.61"/>
        <polygon class="cls-1" points="76.77 114.38 75.85 113.47 100.39 89.12 119.89 89.12 119.89 90.4 100.93 90.4 76.77 114.38"/>
        <polygon class="cls-1" points="164.93 265.51 170.35 270.9 225.84 270.9 230.42 275.44 269.42 275.44 281.55 263.4 162.62 263.4 164.93 265.51"/>
        <polygon class="cls-1" points="482.94 265.51 477.52 270.9 422.03 270.9 417.45 275.44 378.45 275.44 366.32 263.4 485.25 263.4 482.94 265.51"/>
      </g>
    </g>
  </g>
</svg>