<?xml version="1.0" encoding="UTF-8"?>
<svg xmlns="http://www.w3.org/2000/svg" xmlns:xlink="http://www.w3.org/1999/xlink" viewBox="0 0 3555.56 2313">
  <defs>
    <style>
      .cls-1 {
        fill: #05161e;
      }

      .cls-1, .cls-2 {
        mix-blend-mode: screen;
        opacity: .5;
      }

      .cls-3 {
        fill: #0c3949;
      }

      .cls-4 {
        fill: #2981e2;
      }

      .cls-5 {
        isolation: isolate;
      }

      .cls-5, .cls-2, .cls-6, .cls-7 {
        fill: none;
      }

      .cls-2 {
        stroke: #204756;
        stroke-miterlimit: 10;
        stroke-width: 6px;
      }

      .cls-7 {
        clip-path: url(#clippath);
      }
    </style>
    <clipPath id="clippath">
      <rect class="cls-6" x="0" width="3061.08" height="1604.67"/>
    </clipPath>
  </defs>
  <g class="cls-5">
    <g id="Layer_4" data-name="Layer 4">
      <g class="cls-7">
        <g>
          <polygon class="cls-3" points="223.54 890.46 181.71 932.35 181.71 597.3 223.54 625.06 223.54 890.46"/>
          <polygon class="cls-3" points="2828.58 907.47 2842.35 921.77 2842.35 607.39 2828.58 618.78 2828.58 907.47"/>
          <polygon class="cls-3" points="2856.77 933.95 2870.54 950.89 2870.54 578.27 2856.77 591.76 2856.77 933.95"/>
          <rect class="cls-3" x="1252.16" y="180.24" width="532.65" height="18.8"/>
          <polygon class="cls-3" points="2479.7 1431.03 554.05 1431.03 567.69 1412.23 2464.52 1412.23 2479.7 1431.03"/>
          <g>
            <polygon class="cls-4" points="545.03 1452.23 217.13 1452.23 162.17 1397.28 162.17 948.09 216.17 887.62 216.17 628.51 162.17 584.86 162.17 210.37 217.13 155.42 1182.28 155.42 1282.22 225.42 1516.42 225.42 1516.42 235.42 1279.06 235.42 1179.12 165.42 221.27 165.42 172.17 214.52 172.17 580.08 226.17 623.74 226.17 891.44 172.17 951.91 172.17 1393.13 221.27 1442.23 540.13 1442.23 571.19 1402.23 1516.42 1402.23 1516.42 1412.23 576.09 1412.23 545.03 1452.23"/>
            <polygon class="cls-4" points="133.17 537.77 162.17 565.3 162.17 210.37 187.97 184.57 162.9 181.06 133.17 210.37 133.17 537.77"/>
            <polygon class="cls-4" points="1280.64 200.59 1516.42 200.59 1516.42 225.42 1280.64 225.42 1212.18 176.36 1241.58 172.65 1280.64 200.59"/>
            <polygon class="cls-4" points="187.76 1349.3 172.17 1368.12 172.17 1074.94 187.76 1093.77 187.76 1349.3"/>
            <polygon class="cls-4" points="554.99 1425.37 232.25 1425.37 186.44 1379.55 186.44 985.4 210.04 961.79 210.04 906.42 223.54 890.46 223.54 624.97 199 607.54 199 233.24 221.47 204.58 565.04 204.58 585.88 224.58 725.75 224.58 743.74 204.58 1254.99 204.58 1254.99 209.58 744.27 209.58 725.75 229.58 584.72 229.58 565.04 209.58 223.9 209.58 204 234.97 204 604.96 228.54 622.39 228.54 892.29 215.04 908.25 215.04 963.86 191.44 987.47 191.44 1377.48 234.32 1420.37 558.35 1420.37 554.99 1425.37"/>
            <polygon class="cls-4" points="212.82 543.05 204.13 550.71 204.13 382.24 212.82 389.89 212.82 543.05"/>
            <polygon class="cls-4" points="199.76 609.46 194.25 609.46 194.25 554.8 199.76 551.09 199.76 609.46"/>
            <polygon class="cls-4" points="922.98 1389.28 610.19 1389.28 600.93 1402.23 932.23 1402.23 922.98 1389.28"/>
            <polygon class="cls-4" points="965.57 1389.28 940.93 1389.28 949.32 1402.23 974.82 1402.23 965.57 1389.28"/>
            <polygon class="cls-4" points="1015.64 1389.28 991.01 1389.28 999.4 1402.23 1024.9 1402.23 1015.64 1389.28"/>
            <polygon class="cls-4" points="1065.72 1389.28 1041.09 1389.28 1049.48 1402.23 1074.97 1402.23 1065.72 1389.28"/>
            <polygon class="cls-4" points="1115.8 1389.28 1091.17 1389.28 1099.56 1402.23 1125.05 1402.23 1115.8 1389.28"/>
            <polygon class="cls-4" points="1165.88 1389.28 1141.25 1389.28 1149.64 1402.23 1175.13 1402.23 1165.88 1389.28"/>
            <polygon class="cls-4" points="1215.96 1389.28 1191.33 1389.28 1199.71 1402.23 1225.21 1402.23 1215.96 1389.28"/>
            <polygon class="cls-4" points="1388.93 1389.28 1233.68 1389.28 1242.07 1402.23 1398.19 1402.23 1388.93 1389.28"/>
            <polygon class="cls-4" points="937.44 209.63 1259.38 209.63 1259.38 221.63 956.23 221.63 937.44 209.63"/>
            <polygon class="cls-4" points="861.88 134.71 497.64 134.71 525.64 155.42 889.88 155.42 861.88 134.71"/>
            <polygon class="cls-4" points="481.64 134.71 465.05 134.71 493.05 155.42 509.64 155.42 481.64 134.71"/>
            <polygon class="cls-4" points="446.35 134.71 429.76 134.71 457.76 155.42 474.35 155.42 446.35 134.71"/>
            <polygon class="cls-4" points="411.05 134.71 394.46 134.71 422.46 155.42 439.05 155.42 411.05 134.71"/>
            <polygon class="cls-4" points="375.76 134.71 359.17 134.71 387.17 155.42 403.76 155.42 375.76 134.71"/>
            <polygon class="cls-4" points="340.46 134.71 323.88 134.71 351.88 155.42 368.46 155.42 340.46 134.71"/>
            <polygon class="cls-4" points="305.17 134.71 268.35 134.71 255.99 155.42 333.17 155.42 305.17 134.71"/>
            <polygon class="cls-4" points="271.96 1423.9 217.02 1368.95 217.02 1264.16 181.71 1228.85 184.53 1226.02 221.02 1262.5 221.02 1367.29 274.79 1421.07 271.96 1423.9"/>
            <polygon class="cls-4" points="214.21 1249.69 208.18 1249.69 221.02 1262.5 221.02 1305.48 227.05 1300.3 227.05 1261.91 214.21 1249.69"/>
            <polygon class="cls-4" points="217.02 1368.5 232.26 1384.12 225.2 1384.38 212.05 1372.83 212.05 1347.5 217.02 1343.18 217.02 1368.5"/>
            <polygon class="cls-4" points="573.58 218 486.41 218 479.41 209.63 566.58 209.63 573.58 218"/>
          </g>
          <g>
            <polygon class="cls-4" points="2487.68 1452.23 2815.58 1452.23 2870.54 1397.28 2870.54 948.09 2816.54 887.62 2816.54 628.51 2870.54 584.86 2870.54 210.37 2815.58 155.42 1850.43 155.42 1750.49 225.42 1516.29 225.42 1516.29 235.42 1753.65 235.42 1853.59 165.42 2811.44 165.42 2860.54 214.52 2860.54 580.08 2806.54 623.74 2806.54 891.44 2860.54 951.91 2860.54 1393.13 2811.44 1442.23 2492.57 1442.23 2461.52 1402.23 1516.29 1402.23 1516.29 1412.23 2456.62 1412.23 2487.68 1452.23"/>
            <polygon class="cls-4" points="2899.54 537.77 2870.54 565.3 2870.54 210.37 2844.74 184.57 2869.81 181.06 2899.54 210.37 2899.54 537.77"/>
            <polygon class="cls-4" points="1752.07 200.59 1516.29 200.59 1516.29 225.42 1752.07 225.42 1820.53 176.36 1791.13 172.65 1752.07 200.59"/>
            <polygon class="cls-4" points="2844.95 1349.3 2860.54 1368.12 2860.54 1074.94 2844.95 1093.77 2844.95 1349.3"/>
            <polygon class="cls-4" points="2477.58 1425.42 2800.32 1425.42 2846.14 1379.61 2846.14 985.45 2822.54 961.85 2822.54 906.48 2809.04 890.52 2809.04 625.03 2833.58 607.6 2833.58 233.3 2811.11 204.63 2467.54 204.63 2446.7 224.63 2306.83 224.63 2288.83 204.63 1777.58 204.63 1777.58 209.63 2288.3 209.63 2306.83 229.63 2447.86 229.63 2467.54 209.63 2808.68 209.63 2828.58 235.03 2828.58 605.02 2804.04 622.45 2804.04 892.35 2817.54 908.31 2817.54 963.92 2841.14 987.52 2841.14 1377.54 2798.25 1420.42 2472.02 1420.42 2477.58 1425.42"/>
            <polygon class="cls-4" points="2819.89 543.05 2828.58 550.71 2828.58 382.24 2819.89 389.89 2819.89 543.05"/>
            <polygon class="cls-4" points="2832.95 609.46 2838.46 609.46 2838.46 554.8 2832.95 551.09 2832.95 609.46"/>
            <polygon class="cls-4" points="2109.73 1389.28 2422.52 1389.28 2431.77 1402.23 2100.48 1402.23 2109.73 1389.28"/>
            <polygon class="cls-4" points="2067.14 1389.28 2091.77 1389.28 2083.39 1402.23 2057.89 1402.23 2067.14 1389.28"/>
            <polygon class="cls-4" points="2017.06 1389.28 2041.7 1389.28 2033.31 1402.23 2007.81 1402.23 2017.06 1389.28"/>
            <polygon class="cls-4" points="1966.99 1389.28 1991.62 1389.28 1983.23 1402.23 1957.74 1402.23 1966.99 1389.28"/>
            <polygon class="cls-4" points="1916.91 1389.28 1941.54 1389.28 1933.15 1402.23 1907.66 1402.23 1916.91 1389.28"/>
            <polygon class="cls-4" points="1866.83 1389.28 1891.46 1389.28 1883.07 1402.23 1857.58 1402.23 1866.83 1389.28"/>
            <polygon class="cls-4" points="1816.75 1389.28 1841.38 1389.28 1833 1402.23 1807.5 1402.23 1816.75 1389.28"/>
            <polygon class="cls-4" points="1643.77 1389.28 1799.03 1389.28 1790.64 1402.23 1634.52 1402.23 1643.77 1389.28"/>
            <polygon class="cls-4" points="2095.27 209.63 1773.33 209.63 1773.33 221.63 2076.48 221.63 2095.27 209.63"/>
            <polygon class="cls-4" points="2170.83 134.71 2535.07 134.71 2507.07 155.42 2142.83 155.42 2170.83 134.71"/>
            <polygon class="cls-4" points="2551.07 134.71 2567.66 134.71 2539.66 155.42 2523.07 155.42 2551.07 134.71"/>
            <polygon class="cls-4" points="2586.36 134.71 2602.95 134.71 2574.95 155.42 2558.36 155.42 2586.36 134.71"/>
            <polygon class="cls-4" points="2621.66 134.71 2638.25 134.71 2610.25 155.42 2593.66 155.42 2621.66 134.71"/>
            <polygon class="cls-4" points="2656.95 134.71 2673.54 134.71 2645.54 155.42 2628.95 155.42 2656.95 134.71"/>
            <polygon class="cls-4" points="2692.25 134.71 2708.83 134.71 2680.83 155.42 2664.25 155.42 2692.25 134.71"/>
            <polygon class="cls-4" points="2727.54 134.71 2764.36 134.71 2776.72 155.42 2699.54 155.42 2727.54 134.71"/>
            <polygon class="cls-4" points="2760.74 1423.9 2815.69 1368.95 2815.69 1264.16 2851 1228.85 2848.18 1226.02 2811.69 1262.5 2811.69 1367.29 2757.92 1421.07 2760.74 1423.9"/>
            <polygon class="cls-4" points="2818.5 1249.69 2824.53 1249.69 2811.69 1262.5 2811.69 1305.48 2805.66 1300.3 2805.66 1261.91 2818.5 1249.69"/>
            <polygon class="cls-4" points="2815.69 1368.5 2800.45 1384.12 2807.51 1384.38 2820.66 1372.83 2820.66 1347.5 2815.69 1343.18 2815.69 1368.5"/>
            <polygon class="cls-4" points="2459.13 218 2546.3 218 2553.3 209.63 2466.13 209.63 2459.13 218"/>
          </g>
          <rect class="cls-1" x="268.25" y="275.42" width="2495.79" height="1073.87"/>
          <path class="cls-1" d="m2764.04,293.5v1055.79H273.68c522.92-300.78,1510.35-817.67,2490.36-1055.79Z"/>
          <polygon class="cls-2" points="2789.41 1372.12 2748.46 1372.12 2737.17 1389.28 268.25 1389.28 257.41 1389.28 238.35 1369.28 238.35 1259.41 228.25 1253.18 228.25 973.77 248.25 951.65 248.25 577.11 228.25 558.59 228.25 235.42 2271.35 235.42 2291.43 255.42 2461.17 255.42 2480.46 235.42 2778.11 235.42 2785.88 235.42 2804.04 255.77 2804.04 262.12 2804.04 1221.53 2789.41 1236.59 2789.41 1372.12"/>
        </g>
      </g>
    </g>
  </g>
</svg>